# xmcd
#
# Track frame offsets: 
#        150
#        16520
#        36970
#        60380
#        86647
#        109465
#        126597
#        150825
#        169880
#        193812
#        211125
#        224150
#
# Disc length: 3345 seconds
#
# Revision: 1
# Processed by: cddbd v1.5.2PL0 Copyright (c) Steve Scherf et al.
# Submitted via: ExactAudioCopy v1.1
#
DISCID=a80d0f0c
DTITLE=Tom Principato - Play It Cool
DYEAR=2001
DGENRE=
TTITLE0=Play It Cool
TTITLE1=Up From The Skies
TTITLE2=Santana Claus
TTITLE3=Shoe On The Other Foot
TTITLE4=Slippin´ Into Darkness
TTITLE5=Circumstances
TTITLE6=Blue Groove
TTITLE7=Pipe Dream
TTITLE8=Another Place, Another Time
TTITLE9=Knockin´ On The Door (live)
TTITLE10=Try To Reach You (live)
TTITLE11=Kansas City Blues (live)
EXTD=YEAR:2001, VOODOO Records
EXTT0=
EXTT1=
EXTT2=
EXTT3=
EXTT4=
EXTT5=
EXTT6=
EXTT7=
EXTT8=
EXTT9=
EXTT10=
EXTT11=
PLAYORDER=
